<svg id="Layer_1" data-name="Layer 1" xmlns="http://www.w3.org/2000/svg" viewBox="0 0 1138 195"><defs><style>.cls-1{fill:#FFEAC9;}</style></defs><title>Artboard 1</title><path class="cls-1" d="M183.74,118H137.81L132,141.91H101.92L131,21.2a15.37,15.37,0,0,1,5-7.91c2.64-2.35,5.3-3.52,8-3.52h33.61q4,0,8,3.52a15.29,15.29,0,0,1,5,7.91l29,120.71H189.55ZM144.85,88.6H176.7l-12-49.45h-7.92Z"/><path class="cls-1" d="M302.52,9.77h36.24l-44.16,60,52.61,72.14H311.49l-49.8-67.74v67.74H232.31V9.77h29.38V65.19Z"/><path class="cls-1" d="M381.52,73.82h46.81V103.2h-41.7l1.05,5.46q.88,3.87,3.52,3.87h37.13v29.38H391.2a30.82,30.82,0,0,1-21-8.18,34.1,34.1,0,0,1-11.35-20L346.33,43.38a26.17,26.17,0,0,1-.53-5.11A27,27,0,0,1,354.43,18,28.64,28.64,0,0,1,375,9.77h53.32V39.15H375.19Z"/><path class="cls-1" d="M524.75,9.77,554,94.05,583,9.77h31L571.91,131.88a14.77,14.77,0,0,1-5.37,6.87,13.87,13.87,0,0,1-8.53,3.16h-8.27a13.87,13.87,0,0,1-8.53-3.16,14.77,14.77,0,0,1-5.37-6.87L493.78,9.77Z"/><path class="cls-1" d="M685.58,118H639.66l-5.81,23.93H603.76l29-120.71a15.37,15.37,0,0,1,5-7.91q4-3.52,8-3.52h33.6q4.05,0,8,3.52a15.37,15.37,0,0,1,5,7.91l29,120.71H691.39ZM646.7,88.6h31.84l-12-49.45h-7.92Z"/><path class="cls-1" d="M814.39,141.91H734.15V9.77h29.39V112.53h50.85Z"/><path class="cls-1" d="M907.3,141.91H827.06V9.77h29.38V112.53H907.3Z"/><path class="cls-1" d="M945.13,73.82h46.8V103.2h-41.7l1.06,5.46c.58,2.58,1.76,3.87,3.52,3.87h37.12v29.38H954.81a30.82,30.82,0,0,1-21-8.18,34.05,34.05,0,0,1-11.35-20L909.94,43.38a25.43,25.43,0,0,1-.53-5.11A27,27,0,0,1,918,18a28.68,28.68,0,0,1,20.59-8.27h53.31V39.15H938.79Z"/><path class="cls-1" d="M1098,9.77,1068.3,61.5,1038.39,9.77H1004.6l46.63,81.29L1010.76,160a5.14,5.14,0,0,1-4.43,2.54H82.12q-2.64,0-3.52-3.87L36.11,39.15H89.25V9.77H35.94A28.67,28.67,0,0,0,15.35,18,27,27,0,0,0,6.73,38.27a26.14,26.14,0,0,0,.52,5.11l42.5,120.38C56,177,62,179.91,82.12,179.91H1005.6c12.62,0,26.4,1.09,35.4-13.91L1131.82,9.77Z"/></svg>